<?xml version="1.0" standalone="no"?><!DOCTYPE svg PUBLIC "-//W3C//DTD SVG 1.1//EN" "http://www.w3.org/Graphics/SVG/1.1/DTD/svg11.dtd"><svg t="1679561682172" class="icon" viewBox="0 0 1024 1024" version="1.1" xmlns="http://www.w3.org/2000/svg" p-id="29839" xmlns:xlink="http://www.w3.org/1999/xlink" width="200" height="200"><path d="M777 189H248c-101.62 0-184 82.38-184 184v348c0 101.62 82.38 184 184 184h529c101.62 0 184-82.38 184-184V373c0-101.62-82.38-184-184-184z m-529 72h529c61.856 0 112 50.144 112 112v348c0 61.856-50.144 112-112 112H248c-61.856 0-112-50.144-112-112V373c0-61.856 50.144-112 112-112z" fill="#6862F0" p-id="29840"></path><path d="M665.488 496.824L461.86 395.011a63 63 0 0 0-28.174-6.651c-34.794 0-63 28.206-63 63v203.626a63 63 0 0 0 6.651 28.175c15.56 31.12 53.403 43.734 84.523 28.174l203.627-101.813a63 63 0 0 0 28.174-28.174c15.56-31.121 2.946-68.963-28.174-84.524z m-48.298 56.35l-174.503 87.25V465.921l174.503 87.252z" fill="#FFBA00" p-id="29841"></path><path d="M767.375 117.219c15.895-11.943 38.463-8.74 50.406 7.156 11.824 15.736 8.802 38.012-6.683 50.045l-0.473 0.361-103.812 78c-15.895 11.943-38.463 8.74-50.406-7.156-11.824-15.736-8.802-38.012 6.683-50.045l0.473-0.361 103.812-78zM259.625 117.219c-15.895-11.943-38.463-8.74-50.406 7.156-11.824 15.736-8.802 38.012 6.683 50.045l0.473 0.361 103.812 78c15.895 11.943 38.463 8.74 50.406-7.156 11.824-15.736 8.802-38.012-6.683-50.045l-0.473-0.361-103.812-78z" fill="#6862F0" p-id="29842"></path></svg>